<svg width="276" height="39" viewBox="0 0 276 39" fill="none" xmlns="http://www.w3.org/2000/svg">
<path d="M25.4695 35.904C24.5601 36.6667 23.4015 37.2387 21.9935 37.62C20.5855 38.0307 18.9281 38.236 17.0215 38.236H2.19345C1.48945 38.236 0.97612 38.0747 0.653453 37.752C0.330787 37.4293 0.169453 36.916 0.169453 36.212V7.7C0.169453 7.31867 0.213453 6.996 0.301453 6.732C0.418786 6.468 0.58012 6.248 0.785453 6.072L6.46145 1.276C6.60812 1.15867 6.79879 1.07067 7.03345 1.012C7.29745 0.923999 7.57612 0.879999 7.86945 0.879999H22.6975C26.5401 0.879999 29.3708 1.65733 31.1895 3.212C33.0375 4.76667 33.9615 7.128 33.9615 10.296V24.024C33.9615 25.608 33.7268 27.0013 33.2575 28.204C32.7881 29.3773 32.0988 30.36 31.1895 31.152L25.4695 35.904ZM22.6975 33C26.3641 33 29.0775 32.2667 30.8375 30.8C32.6268 29.3333 33.5215 27.0747 33.5215 24.024V10.296C33.5215 7.24533 32.6268 4.98667 30.8375 3.52C29.0775 2.05333 26.3641 1.32 22.6975 1.32H7.86945C7.31212 1.32 6.90145 1.452 6.63745 1.716C6.40279 1.95067 6.28545 2.34667 6.28545 2.904V31.416C6.28545 31.9733 6.40279 32.384 6.63745 32.648C6.90145 32.8827 7.31212 33 7.86945 33H22.6975ZM11.0815 29.04V5.28H21.7295C23.2255 5.28 24.4281 5.44133 25.3375 5.764C26.2761 6.08667 26.9948 6.52666 27.4935 7.084C27.9921 7.612 28.3295 8.25733 28.5055 9.02C28.6815 9.75333 28.7695 10.5453 28.7695 11.396V23.056C28.7695 23.9067 28.6815 24.6987 28.5055 25.432C28.3588 26.1653 28.0361 26.796 27.5375 27.324C27.0388 27.852 26.3201 28.2773 25.3815 28.6C24.4428 28.8933 23.2255 29.04 21.7295 29.04H11.0815ZM21.7295 5.72H11.5215V28.6H21.7295C23.1375 28.6 24.2668 28.468 25.1175 28.204C25.9975 27.9107 26.6721 27.5293 27.1415 27.06C27.6108 26.5613 27.9188 25.9747 28.0655 25.3C28.2415 24.596 28.3295 23.848 28.3295 23.056V11.396C28.3295 10.604 28.2415 9.856 28.0655 9.152C27.8895 8.448 27.5668 7.84667 27.0975 7.348C26.6281 6.84933 25.9535 6.45333 25.0735 6.16C24.2228 5.86667 23.1081 5.72 21.7295 5.72ZM16.2735 9.724H21.5095C22.2135 9.724 22.7268 9.9 23.0495 10.252C23.4015 10.5747 23.5775 11.1027 23.5775 11.836V22.528C23.5775 23.2613 23.4015 23.804 23.0495 24.156C22.7268 24.508 22.2135 24.684 21.5095 24.684H16.2735V9.724ZM17.4615 16.632C17.4615 16.2507 17.4028 15.928 17.2855 15.664C17.1681 15.4 16.9775 15.2093 16.7135 15.092V24.244H17.4615V16.632ZM62.4604 36.124C61.4337 37.004 59.9964 37.6787 58.1484 38.148C56.3004 38.6467 53.9244 38.896 51.0204 38.896C48.1457 38.896 45.7844 38.588 43.9364 37.972C42.1177 37.3853 40.6804 36.5933 39.6244 35.596C38.5977 34.5987 37.8791 33.4547 37.4684 32.164C37.0871 30.8733 36.8964 29.5387 36.8964 28.16V14.476C36.8964 13.1267 37.0871 11.88 37.4684 10.736C37.8497 9.56267 38.5391 8.56533 39.5364 7.744L45.2564 2.992C46.2831 2.112 47.7057 1.43733 49.5244 0.967998C51.3724 0.469331 53.7631 0.219997 56.6964 0.219997C59.5711 0.219997 61.9177 0.454664 63.7364 0.923999C65.5844 1.39333 67.0217 2.05333 68.0484 2.904C69.1044 3.72533 69.8231 4.72267 70.2044 5.896C70.5857 7.04 70.7764 8.30133 70.7764 9.68V24.684C70.7764 26.0333 70.5857 27.28 70.2044 28.424C69.8231 29.568 69.1337 30.5507 68.1364 31.372L62.4604 36.124ZM70.3364 24.684V9.68C70.3364 8.33067 70.1311 7.11333 69.7204 6.028C69.3391 4.91333 68.6351 3.96 67.6084 3.168C66.6111 2.376 65.2177 1.76 63.4284 1.32C61.6684 0.879999 59.4244 0.659999 56.6964 0.659999C53.9684 0.659999 51.7097 0.879999 49.9204 1.32C48.1311 1.76 46.7231 2.376 45.6964 3.168C44.6991 3.96 43.9951 4.91333 43.5844 6.028C43.2031 7.11333 43.0124 8.33067 43.0124 9.68V24.684C43.0124 26.0333 43.2031 27.2653 43.5844 28.38C43.9951 29.4653 44.6991 30.404 45.6964 31.196C46.7231 31.9587 48.1311 32.56 49.9204 33C51.7097 33.44 53.9684 33.66 56.6964 33.66C59.4244 33.66 61.6684 33.44 63.4284 33C65.2177 32.56 66.6111 31.9587 67.6084 31.196C68.6351 30.404 69.3391 29.4653 69.7204 28.38C70.1311 27.2653 70.3364 26.0333 70.3364 24.684ZM65.5404 23.672C65.5404 25.432 64.9097 26.8693 63.6484 27.984C62.3871 29.0693 60.0404 29.612 56.6084 29.612C53.1764 29.612 50.8444 29.0693 49.6124 27.984C48.3804 26.8693 47.7644 25.432 47.7644 23.672V10.692C47.7644 8.932 48.3804 7.50933 49.6124 6.424C50.8444 5.30933 53.1764 4.752 56.6084 4.752C60.0404 4.752 62.3871 5.30933 63.6484 6.424C64.9097 7.50933 65.5404 8.932 65.5404 10.692V23.672ZM48.2044 23.672C48.2044 25.3147 48.7911 26.6493 49.9644 27.676C51.1377 28.6733 53.3524 29.172 56.6084 29.172C59.8644 29.172 62.0937 28.6733 63.2964 27.676C64.4991 26.6493 65.1004 25.3147 65.1004 23.672V10.692C65.1004 9.04933 64.4991 7.72933 63.2964 6.732C62.0937 5.70533 59.8644 5.192 56.6084 5.192C53.3524 5.192 51.1377 5.70533 49.9644 6.732C48.7911 7.72933 48.2044 9.04933 48.2044 10.692V23.672ZM53.0004 23.1V11.264C53.0004 10.7067 53.2204 10.2373 53.6604 9.856C54.1004 9.44533 55.1124 9.24 56.6964 9.24C58.2804 9.24 59.2924 9.44533 59.7324 9.856C60.1724 10.2373 60.3924 10.7067 60.3924 11.264V23.1C60.3924 23.6867 60.1724 24.1853 59.7324 24.596C59.2924 24.9773 58.2804 25.168 56.6964 25.168C55.1124 25.168 54.1004 24.9773 53.6604 24.596C53.2204 24.1853 53.0004 23.6867 53.0004 23.1ZM53.4404 23.1C53.4404 23.3933 53.4991 23.6573 53.6164 23.892C53.7337 24.0973 53.9537 24.2733 54.2764 24.42V16.06C54.2764 15.7667 54.2177 15.5173 54.1004 15.312C53.9831 15.0773 53.7631 14.9013 53.4404 14.784V23.1ZM89.3898 38.236H82.2618C81.5578 38.236 81.0444 38.0747 80.7218 37.752C80.3991 37.4293 80.2378 36.916 80.2378 36.212V15.048H74.2098C73.5058 15.048 72.9924 14.8867 72.6698 14.564C72.3471 14.2413 72.1858 13.728 72.1858 13.024V7.7C72.1858 7.31867 72.2298 6.996 72.3178 6.732C72.4351 6.468 72.5964 6.248 72.8018 6.072L78.4778 1.276C78.6244 1.15867 78.8151 1.07067 79.0498 1.012C79.3138 0.923999 79.5924 0.879999 79.8858 0.879999H103.118C103.822 0.879999 104.335 1.04133 104.658 1.364C104.98 1.68667 105.142 2.2 105.142 2.904V8.228C105.142 8.60933 105.083 8.932 104.966 9.196C104.878 9.46 104.731 9.68 104.526 9.856L98.8058 14.608C98.6884 14.7253 98.4978 14.828 98.2338 14.916C97.9991 15.004 97.7351 15.048 97.4418 15.048H97.0898V31.416C97.0898 31.7973 97.0311 32.12 96.9138 32.384C96.8258 32.648 96.6791 32.868 96.4738 33.044L90.7538 37.796C90.6364 37.9133 90.4458 38.016 90.1818 38.104C89.9471 38.192 89.6831 38.236 89.3898 38.236ZM95.0658 33C95.6231 33 96.0191 32.8827 96.2538 32.648C96.5178 32.384 96.6498 31.9733 96.6498 31.416V9.812H103.118C103.675 9.812 104.071 9.69467 104.306 9.46C104.57 9.196 104.702 8.78533 104.702 8.228V2.904C104.702 2.34667 104.57 1.95067 104.306 1.716C104.071 1.452 103.675 1.32 103.118 1.32H79.8858C79.3284 1.32 78.9178 1.452 78.6538 1.716C78.4191 1.95067 78.3018 2.34667 78.3018 2.904V8.228C78.3018 8.78533 78.4191 9.196 78.6538 9.46C78.9178 9.69467 79.3284 9.812 79.8858 9.812H86.3538V31.416C86.3538 31.9733 86.4711 32.384 86.7058 32.648C86.9698 32.8827 87.3804 33 87.9378 33H95.0658ZM91.2818 29.04V5.72H82.2618V5.28H100.742V5.72H91.7218V29.04H91.2818ZM108.48 38.236C107.776 38.236 107.262 38.0747 106.94 37.752C106.617 37.4293 106.456 36.916 106.456 36.212V31.064C106.456 30.6827 106.5 30.36 106.588 30.096C106.705 29.832 106.866 29.612 107.072 29.436L111.472 25.74C109.917 25.2707 108.685 24.4787 107.776 23.364C106.896 22.22 106.456 20.592 106.456 18.48V13.86C106.456 12.54 106.676 11.3667 107.116 10.34C107.556 9.31333 108.186 8.448 109.008 7.744L114.728 2.948C115.52 2.30266 116.502 1.804 117.676 1.452C118.849 1.07067 120.184 0.879999 121.68 0.879999H134C134.704 0.879999 135.217 1.04133 135.54 1.364C135.862 1.68667 136.024 2.2 136.024 2.904V8.14C136.024 8.52133 135.965 8.844 135.848 9.108C135.76 9.372 135.613 9.592 135.408 9.768L131.448 13.068C133.296 13.4787 134.777 14.256 135.892 15.4C137.036 16.5147 137.608 18.26 137.608 20.636V25.256C137.608 26.576 137.388 27.7493 136.948 28.776C136.508 29.8027 135.862 30.668 135.012 31.372L129.336 36.124C128.514 36.7987 127.517 37.312 126.344 37.664C125.17 38.0453 123.85 38.236 122.384 38.236H108.48ZM128.06 33C130.876 33 133.09 32.34 134.704 31.02C136.346 29.6707 137.168 27.7493 137.168 25.256V20.636C137.168 18.172 136.537 16.412 135.276 15.356C134.014 14.3 132.357 13.6253 130.304 13.332L123.748 12.452C123.366 12.4227 123.073 12.276 122.868 12.012C122.662 11.748 122.56 11.4253 122.56 11.044C122.56 10.6627 122.662 10.3547 122.868 10.12C123.073 9.856 123.366 9.724 123.748 9.724H134C134.557 9.724 134.953 9.60667 135.188 9.372C135.452 9.108 135.584 8.69733 135.584 8.14V2.904C135.584 2.34667 135.452 1.95067 135.188 1.716C134.953 1.452 134.557 1.32 134 1.32H121.68C118.834 1.32 116.605 1.99467 114.992 3.344C113.378 4.664 112.572 6.57067 112.572 9.064V13.684C112.572 16.148 113.188 17.908 114.42 18.964C115.681 20.02 117.338 20.6947 119.392 20.988L125.992 21.912C126.373 21.9413 126.652 22.0733 126.828 22.308C127.033 22.5427 127.136 22.9093 127.136 23.408C127.136 23.76 127.033 24.068 126.828 24.332C126.652 24.5667 126.373 24.684 125.992 24.684H114.156C113.598 24.684 113.188 24.816 112.924 25.08C112.689 25.3147 112.572 25.7107 112.572 26.268V31.416C112.572 31.9733 112.689 32.384 112.924 32.648C113.188 32.8827 113.598 33 114.156 33H128.06ZM131.624 5.28V5.72H121.856C120.624 5.72 119.641 6.05733 118.908 6.732C118.174 7.40667 117.808 8.25733 117.808 9.284V12.892C117.808 13.9187 118.013 14.6373 118.424 15.048C118.834 15.4587 119.377 15.7227 120.052 15.84L129.336 17.732C130.216 17.908 130.934 18.2893 131.492 18.876C132.078 19.4627 132.372 20.5187 132.372 22.044V24.596C132.372 25.8867 131.932 26.9573 131.052 27.808C130.172 28.6293 128.984 29.04 127.488 29.04H116.532V28.6H127.488C128.837 28.6 129.908 28.2333 130.7 27.5C131.521 26.7373 131.932 25.7693 131.932 24.596V22.044C131.932 20.6653 131.682 19.7267 131.184 19.228C130.714 18.7 130.069 18.348 129.248 18.172L119.964 16.28C119.201 16.1333 118.57 15.84 118.072 15.4C117.602 14.9307 117.368 14.0947 117.368 12.892V9.284C117.368 8.11066 117.778 7.15733 118.6 6.424C119.421 5.66133 120.506 5.28 121.856 5.28H131.624ZM151.116 29.04V5.28H151.556V16.94H168.452V5.28H168.892V29.04H168.452V17.38H151.556V29.04H151.116ZM154.768 33C155.325 33 155.721 32.8827 155.956 32.648C156.22 32.384 156.352 31.9733 156.352 31.416V21.648H163.7V31.416C163.7 31.9733 163.817 32.384 164.052 32.648C164.316 32.8827 164.726 33 165.284 33H172.104C172.661 33 173.057 32.8827 173.292 32.648C173.556 32.384 173.688 31.9733 173.688 31.416V2.904C173.688 2.34667 173.556 1.95067 173.292 1.716C173.057 1.452 172.661 1.32 172.104 1.32H165.284C164.726 1.32 164.316 1.452 164.052 1.716C163.817 1.95067 163.7 2.34667 163.7 2.904V12.452H156.352V2.904C156.352 2.34667 156.22 1.95067 155.956 1.716C155.721 1.452 155.325 1.32 154.768 1.32H147.948C147.39 1.32 146.98 1.452 146.716 1.716C146.481 1.95067 146.364 2.34667 146.364 2.904V31.416C146.364 31.9733 146.481 32.384 146.716 32.648C146.98 32.8827 147.39 33 147.948 33H154.768ZM156.176 33.044L150.456 37.796C150.338 37.9133 150.148 38.016 149.884 38.104C149.649 38.192 149.385 38.236 149.092 38.236H142.272C141.568 38.236 141.054 38.0747 140.732 37.752C140.409 37.4293 140.248 36.916 140.248 36.212V7.7C140.248 7.31867 140.292 6.996 140.38 6.732C140.497 6.468 140.658 6.248 140.864 6.072L146.54 1.276C146.686 1.15867 146.877 1.07067 147.112 1.012C147.376 0.923999 147.654 0.879999 147.948 0.879999H154.768C155.472 0.879999 155.985 1.04133 156.308 1.364C156.63 1.68667 156.792 2.2 156.792 2.904V12.012H157.584V7.7C157.584 7.31867 157.628 6.996 157.716 6.732C157.833 6.468 157.994 6.248 158.2 6.072L163.876 1.276C164.022 1.15867 164.213 1.07067 164.448 1.012C164.712 0.923999 164.99 0.879999 165.284 0.879999H172.104C172.808 0.879999 173.321 1.04133 173.644 1.364C173.966 1.68667 174.128 2.2 174.128 2.904V31.416C174.128 31.7973 174.069 32.12 173.952 32.384C173.864 32.648 173.717 32.868 173.512 33.044L167.792 37.796C167.674 37.9133 167.484 38.016 167.22 38.104C166.985 38.192 166.721 38.236 166.428 38.236H159.608C158.904 38.236 158.39 38.0747 158.068 37.752C157.745 37.4293 157.584 36.916 157.584 36.212V26.884H156.792V31.416C156.792 31.7973 156.733 32.12 156.616 32.384C156.528 32.648 156.381 32.868 156.176 33.044ZM200.5 38.236H180.084C179.38 38.236 178.867 38.0747 178.544 37.752C178.221 37.4293 178.06 36.916 178.06 36.212V7.7C178.06 7.31867 178.104 6.996 178.192 6.732C178.309 6.468 178.471 6.248 178.676 6.072L184.352 1.276C184.499 1.15867 184.689 1.07067 184.924 1.012C185.188 0.923999 185.467 0.879999 185.76 0.879999H206.176C206.88 0.879999 207.393 1.04133 207.716 1.364C208.039 1.68667 208.2 2.2 208.2 2.904V8.052C208.2 8.43333 208.141 8.756 208.024 9.02C207.936 9.284 207.789 9.504 207.584 9.68L203.8 12.804C204.093 12.9507 204.299 13.1707 204.416 13.464C204.563 13.7573 204.636 14.1387 204.636 14.608V19.316C204.636 19.6973 204.577 20.02 204.46 20.284C204.372 20.548 204.225 20.768 204.02 20.944L200.104 24.244H206.176C206.88 24.244 207.393 24.4053 207.716 24.728C208.039 25.0507 208.2 25.564 208.2 26.268V31.416C208.2 31.7973 208.141 32.12 208.024 32.384C207.936 32.648 207.789 32.868 207.584 33.044L201.864 37.796C201.747 37.9133 201.556 38.016 201.292 38.104C201.057 38.192 200.793 38.236 200.5 38.236ZM206.176 33C206.733 33 207.129 32.8827 207.364 32.648C207.628 32.384 207.76 31.9733 207.76 31.416V26.268C207.76 25.7107 207.628 25.3147 207.364 25.08C207.129 24.816 206.733 24.684 206.176 24.684H194.032V20.9H202.612C203.169 20.9 203.565 20.7827 203.8 20.548C204.064 20.284 204.196 19.8733 204.196 19.316V14.608C204.196 14.0507 204.064 13.6547 203.8 13.42C203.565 13.156 203.169 13.024 202.612 13.024H194.032V9.636H206.176C206.733 9.636 207.129 9.51867 207.364 9.284C207.628 9.02 207.76 8.60933 207.76 8.052V2.904C207.76 2.34667 207.628 1.95067 207.364 1.716C207.129 1.452 206.733 1.32 206.176 1.32H185.76C185.203 1.32 184.792 1.452 184.528 1.716C184.293 1.95067 184.176 2.34667 184.176 2.904V31.416C184.176 31.9733 184.293 32.384 184.528 32.648C184.792 32.8827 185.203 33 185.76 33H206.176ZM203.8 28.6V29.04H188.972V5.28H203.8V5.72H189.412V16.764H200.236V17.204H189.412V28.6H203.8ZM235.652 38.236H213.256C212.552 38.236 212.039 38.0747 211.716 37.752C211.393 37.4293 211.232 36.916 211.232 36.212V7.7C211.232 7.31867 211.276 6.996 211.364 6.732C211.481 6.468 211.643 6.248 211.848 6.072L217.524 1.276C217.671 1.15867 217.861 1.07067 218.096 1.012C218.36 0.923999 218.639 0.879999 218.932 0.879999H225.752C226.456 0.879999 226.969 1.04133 227.292 1.364C227.615 1.68667 227.776 2.2 227.776 2.904V20.812L227.864 20.724L233.54 15.928C233.687 15.8107 233.877 15.7227 234.112 15.664C234.376 15.576 234.655 15.532 234.948 15.532H241.328C242.032 15.532 242.545 15.6933 242.868 16.016C243.191 16.3387 243.352 16.852 243.352 17.556V31.416C243.352 31.7973 243.293 32.12 243.176 32.384C243.088 32.648 242.941 32.868 242.736 33.044L237.016 37.796C236.899 37.9133 236.708 38.016 236.444 38.104C236.209 38.192 235.945 38.236 235.652 38.236ZM241.328 33C241.885 33 242.281 32.8827 242.516 32.648C242.78 32.384 242.912 31.9733 242.912 31.416V17.556C242.912 16.9987 242.78 16.6027 242.516 16.368C242.281 16.104 241.885 15.972 241.328 15.972H234.948C234.391 15.972 233.98 16.104 233.716 16.368C233.481 16.6027 233.364 16.9987 233.364 17.556V24.684H227.336V2.904C227.336 2.34667 227.204 1.95067 226.94 1.716C226.705 1.452 226.309 1.32 225.752 1.32H218.932C218.375 1.32 217.964 1.452 217.7 1.716C217.465 1.95067 217.348 2.34667 217.348 2.904V31.416C217.348 31.9733 217.465 32.384 217.7 32.648C217.964 32.8827 218.375 33 218.932 33H241.328ZM222.144 29.04V5.28H222.584V28.6H237.896V19.932H238.336V29.04H222.144ZM255.053 38.236H248.233C247.529 38.236 247.015 38.0747 246.693 37.752C246.37 37.4293 246.209 36.916 246.209 36.212V7.7C246.209 7.31867 246.253 6.996 246.341 6.732C246.458 6.468 246.619 6.248 246.825 6.072L252.501 1.276C252.647 1.15867 252.838 1.07067 253.073 1.012C253.337 0.923999 253.615 0.879999 253.909 0.879999H273.533C274.237 0.879999 274.75 1.04133 275.073 1.364C275.395 1.68667 275.557 2.2 275.557 2.904V8.14C275.557 8.52133 275.498 8.844 275.381 9.108C275.293 9.372 275.146 9.592 274.941 9.768L270.013 13.86C270.687 13.86 271.186 14.0213 271.509 14.344C271.831 14.6667 271.993 15.18 271.993 15.884V21.164C271.993 21.5453 271.934 21.868 271.817 22.132C271.729 22.396 271.582 22.616 271.377 22.792L265.657 27.544C265.539 27.6613 265.349 27.764 265.085 27.852C264.85 27.94 264.586 27.984 264.293 27.984H262.753V31.416C262.753 31.7973 262.694 32.12 262.577 32.384C262.489 32.648 262.342 32.868 262.137 33.044L256.417 37.796C256.299 37.9133 256.109 38.016 255.845 38.104C255.61 38.192 255.346 38.236 255.053 38.236ZM260.729 33C261.286 33 261.682 32.8827 261.917 32.648C262.181 32.384 262.313 31.9733 262.313 31.416V22.748H269.969C270.526 22.748 270.922 22.6307 271.157 22.396C271.421 22.132 271.553 21.7213 271.553 21.164V15.884C271.553 15.3267 271.421 14.9307 271.157 14.696C270.922 14.432 270.526 14.3 269.969 14.3H262.313V9.724H273.533C274.09 9.724 274.486 9.60667 274.721 9.372C274.985 9.108 275.117 8.69733 275.117 8.14V2.904C275.117 2.34667 274.985 1.95067 274.721 1.716C274.486 1.452 274.09 1.32 273.533 1.32H253.909C253.351 1.32 252.941 1.452 252.677 1.716C252.442 1.95067 252.325 2.34667 252.325 2.904V31.416C252.325 31.9733 252.442 32.384 252.677 32.648C252.941 32.8827 253.351 33 253.909 33H260.729ZM257.121 29.04V5.28H271.157V5.72H257.561V18.304H267.593V18.744H257.561V29.04H257.121Z" fill="black"/>
</svg>
